<svg width="57" height="50" viewBox="0 0 57 50" fill="none" xmlns="http://www.w3.org/2000/svg">
<path d="M27.6146 2.244C28.3246 2.43564 28.3023 3.40531 27.6518 3.74826C23.87 5.74208 21.296 9.68153 21.296 14.2155C21.296 18.2302 23.2851 21.8162 26.364 23.9721C26.9663 24.3939 26.8665 25.3487 26.1365 25.4378C25.5892 25.5046 25.0286 25.5348 24.4505 25.5348C17.8302 25.5348 12.4634 20.2276 12.4634 13.6807C12.4634 7.13391 17.8302 1.82666 24.4505 1.82666C25.5457 1.82666 26.6066 1.97191 27.6146 2.244Z" fill="url(#paint0_radial_209_316)"/>
<path d="M28.6358 47.7561C27.9258 47.5645 27.9481 46.5948 28.5986 46.2518C32.3804 44.258 34.9544 40.3186 34.9544 35.7846C34.9544 31.7699 32.9653 28.1839 29.8864 26.028C29.284 25.6062 29.3839 24.6514 30.1138 24.5623C30.6612 24.4955 31.2218 24.4653 31.7999 24.4653C38.4202 24.4653 43.787 29.7725 43.787 36.3194C43.787 42.8662 38.4202 48.1734 31.7999 48.1734C30.7047 48.1734 29.6437 48.0282 28.6358 47.7561Z" fill="url(#paint1_radial_209_316)"/>
<path d="M7.95612 14.0449C8.48039 13.5331 9.30405 14.0304 9.2778 14.7578C9.12471 19.0011 11.2883 23.1858 15.2657 25.4567C18.7896 27.4686 22.9353 27.5539 26.3673 25.984C27.035 25.6786 27.8076 26.2339 27.5211 26.9053C27.3044 27.4134 27.0481 27.9141 26.7558 28.4148C23.4457 34.0845 16.1145 36.0271 10.3811 32.7537C4.64779 29.4803 2.6834 22.2304 5.99355 16.5607C6.54485 15.6164 7.20769 14.7755 7.95612 14.0449Z" fill="url(#paint2_radial_209_316)"/>
<path d="M48.2942 35.9552C47.77 36.467 46.9463 35.9697 46.9726 35.2423C47.1257 30.999 44.9621 26.8143 40.9846 24.5434C37.4608 22.5315 33.3151 22.4462 29.883 24.0161C29.2154 24.3215 28.4428 23.7662 28.7292 23.0947C28.946 22.5867 29.2023 22.086 29.4946 21.5853C32.8047 15.9156 40.1359 13.973 45.8692 17.2464C51.6026 20.5198 53.567 27.7696 50.2568 33.4394C49.7055 34.3837 49.0427 35.2246 48.2942 35.9552Z" fill="url(#paint3_radial_209_316)"/>
<path d="M8.44675 36.7954C8.26066 36.0905 9.108 35.6337 9.73194 36.0199C13.3714 38.2727 18.1179 38.5121 22.0954 36.2412C25.6192 34.2293 27.7668 30.7215 28.108 26.9973C28.1743 26.2728 29.0469 25.8888 29.4917 26.4698C29.8282 26.9094 30.1386 27.3793 30.4309 27.88C33.7411 33.5497 31.7767 40.7995 26.0434 44.073C20.31 47.3464 12.9788 45.4038 9.66869 39.7341C9.11738 38.7898 8.71239 37.8017 8.44675 36.7954Z" fill="url(#paint4_radial_209_316)"/>
<path d="M47.8028 13.2046C47.9888 13.9095 47.1415 14.3663 46.5176 13.9801C42.8781 11.7273 38.1316 11.4879 34.1541 13.7588C30.6303 15.7707 28.4827 19.2785 28.1415 23.0027C28.0752 23.7272 27.2026 24.1112 26.7578 23.5302C26.4213 23.0906 26.1109 22.6207 25.8186 22.12C22.5084 16.4503 24.4728 9.20045 30.2062 5.92704C35.9395 2.65363 43.2707 4.59622 46.5808 10.2659C47.1321 11.2102 47.5371 12.1983 47.8028 13.2046Z" fill="url(#paint5_radial_209_316)"/>
<defs>
<radialGradient id="paint0_radial_209_316" cx="0" cy="0" r="1" gradientUnits="userSpaceOnUse" gradientTransform="translate(21.0053 13.6807) rotate(60.9682) scale(13.0987 12.5145)">
<stop stop-color="#2864BF"/>
<stop offset="1" stop-color="#2864BF" stop-opacity="0"/>
</radialGradient>
<radialGradient id="paint1_radial_209_316" cx="0" cy="0" r="1" gradientUnits="userSpaceOnUse" gradientTransform="translate(35.2451 36.3194) rotate(-119.032) scale(13.0987 12.5145)">
<stop stop-color="#2864BF"/>
<stop offset="1" stop-color="#2864BF" stop-opacity="0"/>
</radialGradient>
<radialGradient id="paint2_radial_209_316" cx="0" cy="0" r="1" gradientUnits="userSpaceOnUse" gradientTransform="translate(14.6521 25.4383) rotate(1.22498) scale(13.2112 12.408)">
<stop stop-color="#2864BF"/>
<stop offset="1" stop-color="#2864BF" stop-opacity="0"/>
</radialGradient>
<radialGradient id="paint3_radial_209_316" cx="0" cy="0" r="1" gradientUnits="userSpaceOnUse" gradientTransform="translate(41.5983 24.5618) rotate(-178.775) scale(13.2112 12.408)">
<stop stop-color="#2864BF"/>
<stop offset="1" stop-color="#2864BF" stop-opacity="0"/>
</radialGradient>
<radialGradient id="paint4_radial_209_316" cx="0" cy="0" r="1" gradientUnits="userSpaceOnUse" gradientTransform="translate(21.7724 36.7575) rotate(-58.4771) scale(13.1042 12.5093)">
<stop stop-color="#2864BF"/>
<stop offset="1" stop-color="#2864BF" stop-opacity="0"/>
</radialGradient>
<radialGradient id="paint5_radial_209_316" cx="0" cy="0" r="1" gradientUnits="userSpaceOnUse" gradientTransform="translate(34.4771 13.2425) rotate(121.523) scale(13.1042 12.5093)">
<stop stop-color="#2864BF"/>
<stop offset="1" stop-color="#2864BF" stop-opacity="0"/>
</radialGradient>
</defs>
</svg>
